<?xml version="1.0" ?><!DOCTYPE svg  PUBLIC '-//W3C//DTD SVG 1.1//EN'  'http://www.w3.org/Graphics/SVG/1.1/DTD/svg11.dtd'><svg height="100%" style="fill-rule:evenodd;clip-rule:evenodd;stroke-linejoin:round;stroke-miterlimit:2;" version="1.1" viewBox="0 0 512 512" width="100%" xml:space="preserve" xmlns="http://www.w3.org/2000/svg" xmlns:serif="http://www.serif.com/" xmlns:xlink="http://www.w3.org/1999/xlink"><path d="M449.446,0c34.525,0 62.554,28.03 62.554,62.554l0,386.892c0,34.524 -28.03,62.554 -62.554,62.554l-386.892,0c-34.524,0 -62.554,-28.03 -62.554,-62.554l0,-386.892c0,-34.524 28.029,-62.554 62.554,-62.554l386.892,0Zm-27.066,192.877c-1.557,34.064 -25.35,80.708 -71.381,139.917c-47.585,61.833 -87.85,92.757 -120.776,92.757c-20.406,0 -37.672,-18.819 -51.774,-56.488c-9.416,-34.529 -18.824,-69.053 -28.249,-103.581c-10.473,-37.645 -21.706,-56.493 -33.721,-56.493c-2.62,0 -11.781,5.509 -27.47,16.482l-16.463,-21.205c17.275,-15.175 34.311,-30.347 51.073,-45.546c23.038,-19.898 40.345,-30.368 51.872,-31.426c27.231,-2.619 43.996,16 50.288,55.848c6.802,42.996 11.512,69.738 14.151,80.2c7.862,35.679 16.504,53.498 25.932,53.498c7.317,0 18.327,-11.571 33.006,-34.722c14.648,-23.13 22.497,-40.737 23.559,-52.836c2.095,-19.97 -5.763,-29.976 -23.559,-29.976c-8.382,0 -17.023,1.925 -25.911,5.736c17.205,-56.332 50.072,-83.689 98.573,-82.131c35.937,1.057 52.902,24.341 50.85,69.966Z"/></svg>